<?xml version="1.0" encoding="utf-8"?>
<!-- Generator: Adobe Illustrator 16.0.0, SVG Export Plug-In . SVG Version: 6.00 Build 0)  -->
<!DOCTYPE svg PUBLIC "-//W3C//DTD SVG 1.1//EN" "http://www.w3.org/Graphics/SVG/1.1/DTD/svg11.dtd">
<svg version="1.1" id="Layer_1" xmlns="http://www.w3.org/2000/svg" xmlns:xlink="http://www.w3.org/1999/xlink" x="0px" y="0px"
	 width="296.377px" height="295.652px" viewBox="0 0 296.377 295.652" enable-background="new 0 0 296.377 295.652"
	 xml:space="preserve">
<g>
	<g>
		<path fill="#FCCB5F" d="M149.871,290.558c-78.024,0-141.502-63.477-141.502-141.5s63.478-141.5,141.502-141.5
			c78.022,0,141.498,63.477,141.498,141.5S227.894,290.558,149.871,290.558z M149.871,10.558c-76.37,0-138.502,62.131-138.502,138.5
			s62.132,138.5,138.502,138.5c76.368,0,138.498-62.131,138.498-138.5S226.239,10.558,149.871,10.558z"/>
	</g>
</g>
<g>
	<path fill="#242633" d="M237.706,125.304l-8.208-5.327l7.012-6.825c0.728-0.709,1.048-1.738,0.85-2.735
		c-0.198-0.997-0.888-1.825-1.832-2.202l-9.09-3.622l5.545-8.063c0.576-0.837,0.688-1.909,0.3-2.848
		c-0.389-0.938-1.227-1.617-2.226-1.801l-9.621-1.779l3.865-8.986c0.401-0.934,0.304-2.007-0.261-2.852
		c-0.558-0.834-1.494-1.334-2.495-1.334c-0.013,0-0.026,0-0.04,0l-9.783,0.129l2.037-9.57c0.211-0.995-0.095-2.028-0.813-2.747
		c-0.718-0.718-1.75-1.024-2.746-0.812l-9.569,2.038l0.131-9.784c0.014-1.016-0.488-1.97-1.333-2.535
		c-0.846-0.564-1.92-0.664-2.853-0.261l-8.987,3.866l-1.78-9.62c-0.186-0.999-0.863-1.837-1.802-2.226
		c-0.938-0.388-2.011-0.277-2.849,0.3l-8.062,5.543l-3.622-9.09c-0.377-0.944-1.205-1.633-2.202-1.832
		c-0.996-0.197-2.025,0.122-2.734,0.85l-6.825,7.011l-5.326-8.207c-0.554-0.852-1.5-1.367-2.517-1.367
		c-1.016,0-1.963,0.515-2.517,1.367l-5.326,8.207l-6.825-7.011c-0.709-0.728-1.739-1.046-2.734-0.85
		c-0.997,0.198-1.826,0.888-2.202,1.832l-3.622,9.089l-8.062-5.544c-0.838-0.576-1.909-0.688-2.849-0.299
		c-0.938,0.389-1.616,1.227-1.802,2.226l-1.779,9.62l-8.988-3.866c-0.936-0.402-2.007-0.303-2.853,0.261
		c-0.845,0.565-1.347,1.519-1.333,2.535l0.132,9.784L89.54,63.93c-0.994-0.211-2.027,0.094-2.746,0.812
		c-0.719,0.719-1.024,1.752-0.813,2.747l2.037,9.57l-9.783-0.129c-0.98-0.019-1.97,0.488-2.534,1.333
		c-0.564,0.845-0.663,1.918-0.262,2.852l3.865,8.986l-9.621,1.779c-0.999,0.185-1.837,0.863-2.226,1.801
		c-0.389,0.939-0.276,2.011,0.3,2.848l5.545,8.063l-9.09,3.622c-0.944,0.376-1.634,1.205-1.832,2.202
		c-0.198,0.997,0.122,2.026,0.85,2.735l7.012,6.825l-8.208,5.328c-0.853,0.553-1.367,1.501-1.367,2.517s0.515,1.963,1.367,2.516
		l8.208,5.325l-7.012,6.824c-0.728,0.709-1.048,1.738-0.85,2.735c0.198,0.997,0.888,1.826,1.832,2.202l9.09,3.623l-5.545,8.062
		c-0.576,0.837-0.688,1.909-0.3,2.849c0.389,0.938,1.227,1.617,2.226,1.801l9.621,1.781l-3.865,8.986
		c-0.401,0.934-0.303,2.007,0.262,2.852c0.557,0.834,1.493,1.334,2.494,1.334c0.013,0,0.026,0,0.04,0l9.783-0.13l-2.037,9.569
		c-0.211,0.994,0.095,2.027,0.813,2.746s1.752,1.026,2.746,0.812l9.569-2.036l-0.122,9.034l-17.643,32.117
		c-0.526,0.957-0.49,2.123,0.092,3.046c0.583,0.923,1.609,1.461,2.711,1.394l27.107-1.569l10.805,24.036
		c0.46,1.021,1.451,1.703,2.57,1.766c0.056,0.002,0.111,0.004,0.167,0.004c1.057,0,2.041-0.558,2.582-1.475l22.491-38.092
		l22.491,38.092c0.541,0.917,1.525,1.475,2.582,1.475c0.056,0,0.111-0.002,0.167-0.004c1.119-0.062,2.11-0.744,2.57-1.766
		l10.806-24.036l27.106,1.569c1.103,0.066,2.128-0.471,2.711-1.394c0.582-0.923,0.618-2.089,0.092-3.046l-17.645-32.117
		l-0.121-9.034l9.569,2.036c0.214,0.047,0.44,0.072,0.644,0.066h0.001c1.657,0,3-1.344,3-3c0-0.336-0.055-0.66-0.157-0.962
		l-1.965-9.232l9.783,0.13c0.014,0,0.026,0,0.04,0c1.001,0,1.938-0.5,2.495-1.334c0.564-0.845,0.662-1.918,0.261-2.852l-3.866-8.986
		l9.622-1.78c0.999-0.185,1.837-0.863,2.226-1.802c0.389-0.939,0.276-2.012-0.3-2.849l-5.545-8.062l9.09-3.623
		c0.944-0.376,1.634-1.205,1.832-2.202c0.198-0.997-0.122-2.026-0.85-2.735l-7.012-6.825l8.207-5.325
		c0.853-0.553,1.367-1.5,1.367-2.516S238.558,125.858,237.706,125.304z M125.157,249.987l-8.649-19.241l7.27-12.649
		c0.826-1.437,0.331-3.271-1.105-4.096c-1.438-0.826-3.271-0.329-4.096,1.106l-7.225,12.571l-22.138,1.281l14.896-27.117
		l8.041-3.456l1.779,9.62c0.186,0.999,0.863,1.837,1.802,2.226c0.939,0.391,2.011,0.277,2.849-0.299l8.062-5.545l3.622,9.089
		c0.376,0.944,1.205,1.634,2.202,1.832c0.995,0.198,2.025-0.122,2.735-0.851l6.823-7.011l4.317,6.659L125.157,249.987z
		 M188.635,227.693l-7.232-12.586c-0.825-1.438-2.657-1.932-4.096-1.106c-1.437,0.825-1.932,2.659-1.105,4.096l7.137,12.418
		l-8.755,19.473l-21.186-35.88l4.315-6.658l6.824,7.01c0.709,0.729,1.738,1.049,2.734,0.851c0.997-0.198,1.825-0.888,2.202-1.831
		l3.622-9.09l8.062,5.544c0.838,0.577,1.91,0.69,2.849,0.3c0.938-0.389,1.616-1.227,1.802-2.226l1.78-9.62l8.041,3.457
		l14.897,27.116L188.635,227.693z M223.08,132.674c-0.766,0.497-1.264,1.314-1.353,2.223c-0.09,0.908,0.239,1.807,0.893,2.444
		l6.392,6.221l-8.285,3.303c-0.848,0.337-1.496,1.042-1.761,1.916c-0.265,0.873-0.118,1.818,0.399,2.57l5.054,7.348l-8.771,1.624
		c-0.897,0.165-1.67,0.73-2.1,1.535c-0.431,0.805-0.471,1.761-0.11,2.6l3.523,8.192l-8.917-0.119
		c-0.93-0.031-1.78,0.392-2.359,1.098c-0.578,0.705-0.805,1.635-0.615,2.527l1.857,8.723l-8.723-1.856
		c-0.895-0.19-1.822,0.036-2.528,0.614c-0.705,0.579-1.108,1.447-1.097,2.359l0.119,8.916l-8.193-3.521
		c-0.837-0.359-1.794-0.319-2.599,0.11s-1.37,1.202-1.536,2.1l-1.622,8.769l-7.349-5.053c-0.752-0.518-1.696-0.664-2.571-0.398
		c-0.873,0.264-1.578,0.912-1.916,1.76l-3.302,8.283l-6.222-6.391c-0.637-0.654-1.534-0.984-2.444-0.894
		c-0.908,0.089-1.727,0.588-2.223,1.354l-4.854,7.487l-4.854-7.488c-0.497-0.766-1.315-1.264-2.224-1.353
		c-0.098-0.01-0.196-0.015-0.294-0.015c-0.806,0-1.582,0.324-2.149,0.908l-6.221,6.391l-3.301-8.283
		c-0.338-0.848-1.043-1.496-1.916-1.76c-0.871-0.266-1.819-0.119-2.571,0.398l-7.349,5.053l-1.622-8.769
		c-0.166-0.897-0.731-1.669-1.536-2.1c-0.804-0.43-1.761-0.47-2.599-0.11l-8.194,3.521l0.12-8.916
		c0.012-0.912-0.392-1.78-1.097-2.359c-0.705-0.578-1.632-0.805-2.528-0.614l-8.723,1.856l1.857-8.723
		c0.189-0.893-0.037-1.822-0.615-2.527c-0.57-0.695-1.422-1.098-2.319-1.098c-0.013,0-0.026,0-0.04,0l-8.918,0.119l3.523-8.193
		c0.36-0.838,0.32-1.794-0.11-2.599c-0.43-0.805-1.202-1.369-2.1-1.535l-8.77-1.624l5.054-7.348c0.518-0.752,0.664-1.698,0.399-2.57
		c-0.265-0.874-0.913-1.579-1.761-1.916l-8.285-3.303l6.392-6.221c0.653-0.637,0.982-1.536,0.893-2.444
		c-0.089-0.908-0.587-1.726-1.353-2.223l-7.481-4.854l7.481-4.856c0.766-0.497,1.264-1.315,1.353-2.223
		c0.09-0.908-0.239-1.807-0.893-2.443l-6.392-6.221l8.285-3.301c0.848-0.338,1.495-1.043,1.761-1.916
		c0.265-0.873,0.118-1.819-0.399-2.57l-5.054-7.35l8.77-1.622c0.896-0.166,1.67-0.731,2.1-1.536c0.431-0.805,0.471-1.761,0.11-2.599
		l-3.523-8.192l8.918,0.118c0.911,0.034,1.78-0.391,2.359-1.097c0.578-0.705,0.805-1.635,0.615-2.527l-1.857-8.724l8.723,1.857
		c0.892,0.192,1.823-0.037,2.528-0.615c0.705-0.579,1.108-1.447,1.097-2.359l-0.12-8.918l8.193,3.523
		c0.841,0.361,1.796,0.32,2.6-0.11c0.805-0.43,1.37-1.203,1.536-2.1l1.622-8.769l7.349,5.053c0.752,0.517,1.7,0.665,2.571,0.399
		c0.873-0.265,1.578-0.913,1.916-1.761l3.301-8.285l6.221,6.39c0.636,0.654,1.532,0.984,2.443,0.893
		c0.908-0.089,1.726-0.587,2.223-1.352l4.855-7.481l4.854,7.481c0.497,0.765,1.314,1.263,2.223,1.352
		c0.913,0.091,1.807-0.239,2.443-0.893l6.222-6.391l3.302,8.286c0.338,0.847,1.043,1.495,1.916,1.76
		c0.875,0.266,1.819,0.118,2.571-0.399l7.349-5.053l1.622,8.769c0.166,0.897,0.731,1.67,1.536,2.1c0.805,0.43,1.761,0.471,2.6,0.11
		l8.192-3.523l-0.119,8.918c-0.012,0.912,0.392,1.78,1.097,2.359c0.706,0.579,1.638,0.807,2.528,0.615l8.723-1.857l-1.857,8.724
		c-0.189,0.892,0.037,1.823,0.615,2.527c0.57,0.695,1.422,1.097,2.319,1.097c0.013,0,0.026,0,0.04,0l8.917-0.118l-3.523,8.191
		c-0.36,0.838-0.32,1.795,0.11,2.6c0.43,0.805,1.203,1.37,2.1,1.536l8.771,1.622l-5.054,7.35c-0.518,0.751-0.664,1.697-0.399,2.57
		c0.266,0.873,0.913,1.578,1.761,1.916l8.285,3.301l-6.392,6.221c-0.653,0.636-0.982,1.535-0.893,2.443
		c0.089,0.908,0.587,1.726,1.352,2.223l7.482,4.856L223.08,132.674z"/>
	<path fill="#242633" d="M149.87,63.933c-35.228,0-63.887,28.66-63.887,63.888c0,35.226,28.659,63.885,63.887,63.885
		c35.227,0,63.886-28.659,63.886-63.885C213.756,92.593,185.097,63.933,149.87,63.933z M149.87,185.706
		c-31.919,0-57.887-25.967-57.887-57.885c0-31.919,25.968-57.888,57.887-57.888c31.918,0,57.886,25.968,57.886,57.888
		C207.756,159.739,181.788,185.706,149.87,185.706z"/>
</g>
</svg>
