<?xml version="1.0" encoding="utf-8"?>
<!-- Generator: Adobe Illustrator 16.0.0, SVG Export Plug-In . SVG Version: 6.00 Build 0)  -->
<!DOCTYPE svg PUBLIC "-//W3C//DTD SVG 1.1//EN" "http://www.w3.org/Graphics/SVG/1.1/DTD/svg11.dtd">
<svg version="1.1" id="Layer_1" xmlns="http://www.w3.org/2000/svg" xmlns:xlink="http://www.w3.org/1999/xlink" x="0px" y="0px"
	 width="296.377px" height="295.652px" viewBox="0 0 296.377 295.652" enable-background="new 0 0 296.377 295.652"
	 xml:space="preserve">
<path d="M73.417,165.187c-0.103-0.18-0.18-0.35-0.23-0.508c2.012-0.956,4.08-1.879,6.219-2.749c0.226,0.086,0.459,0.168,0.687,0.254
	c2.654-1.083,5.447-2.105,8.368-3.062c-0.253-0.084-0.513-0.161-0.766-0.247c18.083-6.026,39.616-9.275,62.356-9.275
	c22.743,0,44.277,3.252,62.357,9.275c-0.208,0.07-0.418,0.134-0.626,0.202c2.923,0.954,5.719,1.974,8.373,3.052
	c0.179-0.067,0.363-0.131,0.54-0.199c2.14,0.872,4.209,1.793,6.223,2.749c-0.039,0.127-0.098,0.263-0.168,0.401
	c1.788,0.879,3.249,1.79,4.864,2.728c0.822-1.545,0.59-2.805,0.59-3.596v-16.39c0-0.003,0-0.009,0-0.013V53.384
	c0-0.013,0.234-0.026,0.234-0.039c-0.002-0.113,0.102-0.224,0.087-0.336c-0.01-0.075,0.046-0.153,0.03-0.227
	c-0.021-0.093-0.024-0.184-0.054-0.275c-0.028-0.083-0.033-0.169-0.068-0.25c-0.037-0.087-0.081-0.167-0.127-0.25
	c-0.042-0.077-0.074-0.156-0.123-0.229c-0.053-0.075-0.116-0.142-0.175-0.213s-0.113-0.146-0.179-0.21
	c-0.054-0.053-0.117-0.098-0.178-0.146c-0.086-0.072-0.17-0.146-0.264-0.208c-0.011-0.008-0.021-0.017-0.031-0.024
	c-0.055-0.035-0.115-0.055-0.172-0.085c-0.097-0.053-0.192-0.107-0.295-0.148c-0.087-0.035-0.175-0.056-0.265-0.082
	c-0.088-0.026-0.176-0.056-0.269-0.073c-0.107-0.02-0.214-0.025-0.321-0.032c-0.067-0.004-0.132-0.02-0.198-0.02
	c-0.015,0-0.027,0.004-0.041,0.004c-0.106,0.001-0.211,0.018-0.315,0.032c-0.084,0.01-0.167,0.013-0.249,0.031
	c-0.08,0.018-0.155,0.048-0.233,0.073c-0.099,0.031-0.198,0.056-0.292,0.096c-0.07,0.03-0.135,0.074-0.203,0.11
	c-0.093,0.05-0.188,0.095-0.272,0.154c-0.069,0.046-0.131,0.106-0.195,0.16c-0.077,0.063-0.157,0.122-0.227,0.193
	c-0.054,0.054-0.098,0.119-0.147,0.177c-0.071,0.086-0.145,0.17-0.206,0.263c-0.007,0.011-0.018,0.021-0.025,0.032l-15.594,24.672
	l-6.437-13.031c-0.481-0.958-1.462-1.823-2.534-1.823c-0.003,0-0.004,0-0.008,0c-1.068,0-2.048,0.857-2.534,1.81l-5.29,10.487
	l-16.603-33.033c-0.472-0.94-1.423-1.511-2.475-1.536c-1.085-0.021-2.031,0.547-2.55,1.463L157.36,69.37l-5.911-12.387
	c-0.484-0.956-1.466-2.302-2.537-2.302c-0.008,0-0.017,0-0.024,0c-1.081,0-2.062,1.378-2.535,2.349l-5.54,11.766L125.58,40.748
	c-0.509-0.941-1.499-1.427-2.572-1.4c-1.07,0.025-2.035,0.694-2.498,1.659l-15.308,31.884l-5.501-9.419
	c-0.526-0.902-1.487-1.424-2.55-1.405c-1.044,0.034-1.987,0.64-2.454,1.574l-6.442,12.879L72.67,51.863
	c-0.007-0.011-0.018-0.021-0.025-0.032c-0.062-0.093-0.134-0.177-0.206-0.263c-0.05-0.059-0.094-0.124-0.147-0.178
	c-0.07-0.071-0.149-0.13-0.226-0.193c-0.066-0.054-0.126-0.113-0.194-0.16c-0.089-0.062-0.187-0.107-0.281-0.157
	c-0.066-0.035-0.128-0.076-0.196-0.106c-0.098-0.042-0.205-0.07-0.309-0.101c-0.072-0.022-0.142-0.051-0.215-0.067
	c-0.087-0.019-0.179-0.023-0.269-0.034c-0.098-0.012-0.194-0.028-0.293-0.029c-0.015,0-0.029-0.005-0.045-0.005
	c-0.074,0-0.143,0.017-0.216,0.021c-0.1,0.008-0.199,0.013-0.299,0.031c-0.099,0.018-0.193,0.049-0.288,0.078
	c-0.083,0.024-0.165,0.043-0.245,0.076c-0.107,0.042-0.205,0.097-0.305,0.151c-0.054,0.03-0.112,0.049-0.167,0.083
	c-0.011,0.007-0.02,0.016-0.03,0.024c-0.095,0.062-0.179,0.135-0.265,0.208c-0.059,0.049-0.124,0.094-0.178,0.146
	c-0.065,0.064-0.12,0.139-0.179,0.21c-0.06,0.071-0.124,0.138-0.176,0.213c-0.048,0.072-0.084,0.152-0.127,0.229
	c-0.046,0.083-0.098,0.163-0.135,0.25c-0.035,0.08-0.055,0.167-0.083,0.25c-0.029,0.092-0.065,0.182-0.085,0.275
	c-0.015,0.074-0.018,0.152-0.028,0.227c-0.015,0.112,0.36,0.223,0.358,0.336c0,0.013,0.389,0.026,0.389,0.039v94.425
	c0,0.003,0,0.009,0,0.013v16.39c0,0.805-0.387,2.107,0.525,3.707C70.336,166.979,71.638,166.068,73.417,165.187z M202.842,71.333
	l5.449,10.812l-5.145,8.137l-4.946-9.861L202.842,71.333z M148.967,65.418l5.038,9.921l-5.039,8.944l-4.824-8.941L148.967,65.418z
	 M97.434,70.894l4.792,8.215l-5.327,11.087l-5.092-8.055L97.434,70.894z M73.203,63.213l21.676,34.368
	c0.554,0.875,1.519,1.38,2.548,1.32c1.033-0.06,1.94-0.676,2.389-1.608l23.412-48.742l23.183,42.978
	c0.493,0.912,1.441,1.484,2.478,1.494c0.994-0.002,1.996-0.546,2.504-1.449l24.35-43.231l24.574,48.994
	c0.462,0.917,1.38,1.516,2.404,1.567c0.048,0.002,0.096,0.003,0.142,0.003c0.972,0,1.989-0.498,2.512-1.325l21.829-34.368v80.327
	c-22-8.633-48.944-13.362-77-13.362c-28.057,0-55,4.729-77,13.362V63.213z M73.203,149.698c21-8.917,48.722-13.828,77-13.828
	s55,4.911,77,13.828v8.733c-2-0.747-3.48-1.464-5.221-2.16c-0.025-0.009-0.104-0.016-0.129-0.027
	c-20.116-7.987-45.198-12.336-71.777-12.336c-26.576,0-51.643,4.346-71.759,12.334c-0.026,0.012-0.013,0.02-0.04,0.032
	c-1.742,0.693-3.075,1.41-5.075,2.157V149.698z"/>
<g>
	<g>
		<path fill="#FCCB5F" d="M150.009,290.876c-78.024,0-141.502-63.477-141.502-141.5s63.478-141.5,141.502-141.5
			c78.022,0,141.498,63.477,141.498,141.5S228.031,290.876,150.009,290.876z M150.009,10.876c-76.37,0-138.502,62.131-138.502,138.5
			s62.132,138.5,138.502,138.5c76.368,0,138.498-62.131,138.498-138.5S226.377,10.876,150.009,10.876z"/>
	</g>
</g>
</svg>
