<?xml version="1.0" encoding="utf-8"?>
<!-- Generator: Adobe Illustrator 16.0.0, SVG Export Plug-In . SVG Version: 6.00 Build 0)  -->
<!DOCTYPE svg PUBLIC "-//W3C//DTD SVG 1.1//EN" "http://www.w3.org/Graphics/SVG/1.1/DTD/svg11.dtd">
<svg version="1.1" id="Layer_1" xmlns="http://www.w3.org/2000/svg" xmlns:xlink="http://www.w3.org/1999/xlink" x="0px" y="0px"
	 width="296.377px" height="295.652px" viewBox="0 0 296.377 295.652" enable-background="new 0 0 296.377 295.652"
	 xml:space="preserve">
<g>
	<g>
		<path fill="#FC6E59" d="M146.935,290.873c-78.023,0-141.5-63.477-141.5-141.499c0-78.023,63.477-141.5,141.5-141.5
			s141.5,63.477,141.5,141.5C288.435,227.396,224.958,290.873,146.935,290.873z M146.935,10.874c-76.369,0-138.5,62.131-138.5,138.5
			c0,76.368,62.131,138.499,138.5,138.499s138.5-62.131,138.5-138.499C285.435,73.004,223.304,10.874,146.935,10.874z"/>
	</g>
</g>
<g>
	<path fill="#242633" d="M238.418,115.734c-0.311-1.228-1.557-1.97-2.785-1.66c-1.227,0.311-1.971,1.558-1.658,2.785
		c4.982,19.679,12.381,69.863-26.451,110.744c-0.871,0.918-0.834,2.369,0.084,3.24c0.441,0.422,1.012,0.631,1.578,0.631
		c0.605,0,1.211-0.238,1.662-0.713C251.25,188.226,243.588,136.149,238.418,115.734z"/>
	<path fill="#242633" d="M233.766,110.415c0.266,0.101,0.541,0.148,0.809,0.148c0.867,0,1.691-0.495,2.078-1.322
		c0.141-0.301,3.406-7.444,0.475-14.587c-2.812-6.858-10.875-12.382-11.217-12.614c-0.637-0.432-1.447-0.514-2.156-0.223
		c-0.713,0.292-1.229,0.921-1.379,1.674c-0.08,0.405-1.938,10.001,0.877,16.856C226.18,107.485,233.459,110.299,233.766,110.415z
		 M226.391,88.245c2.27,1.978,5.188,4.96,6.494,8.149c1.307,3.179,0.896,6.489,0.365,8.618c-1.859-1.149-4.453-3.226-5.758-6.405
		C226.184,95.418,226.164,91.245,226.391,88.245z"/>
	<path fill="#242633" d="M243.797,123.537c0.352,0.203,0.746,0.307,1.145,0.307c0.207,0,0.412-0.027,0.615-0.083
		c0.289-0.081,7.111-2.044,10.833-8.844c2.812-5.144,3.076-11.534,0.779-18.995c-0.195-0.639-0.662-1.161-1.275-1.428
		c-0.613-0.266-1.312-0.252-1.914,0.04c-0.164,0.079-16.282,8.153-11.257,27.592C242.877,122.721,243.264,123.229,243.797,123.537z
		 M253.562,100.23c1.039,4.906,0.648,9.077-1.165,12.43c-1.588,2.936-4.006,4.701-5.783,5.674
		C245.09,108.446,250.301,102.754,253.562,100.23z"/>
	<path fill="#242633" d="M228.395,128.199c1.084,0,1.783-0.103,1.859-0.114c0.607-0.093,1.154-0.426,1.514-0.925
		c0.359-0.5,0.504-1.123,0.4-1.729c-3.104-18.094-19.588-18.781-19.754-18.787c-0.666-0.026-1.312,0.255-1.762,0.75
		c-0.451,0.495-0.662,1.162-0.578,1.825C212.271,126.83,224.652,128.199,228.395,128.199z M218.986,113.228
		c3.99,2.138,6.691,5.604,8.057,10.326c-4.084-0.372-9.762-2.636-11.883-11.825C216.273,112.023,217.609,112.49,218.986,113.228z"/>
	<path fill="#242633" d="M245.424,142.832c-0.051,0.61,0.152,1.216,0.551,1.681c0.396,0.466,0.973,0.753,1.584,0.797
		c0,0,0.207,0.016,0.584,0.016c1.803,0,6.481-0.329,10.972-3.369c3.971-2.689,8.797-8.311,9.236-19.816
		c0.025-0.668-0.242-1.315-0.734-1.769c-0.49-0.456-1.158-0.669-1.82-0.596C265.608,119.797,247.154,122.17,245.424,142.832z
		 M263.528,125.002c-1.498,12.085-8.861,14.952-13.192,15.577C252.215,130.128,259.458,126.33,263.528,125.002z"/>
	<path fill="#242633" d="M229.012,178.97c1.004,0,1.922-0.664,2.205-1.672c0.086-0.307,2.051-7.553-2.043-14.238
		c-2.965-4.84-8.23-8.049-15.65-9.539c-0.633-0.125-1.293,0.021-1.814,0.406c-0.52,0.383-0.854,0.971-0.918,1.615
		c-0.639,6.389,2.232,19.494,17.662,23.359C228.641,178.949,228.826,178.97,229.012,178.97z M227.139,173.718
		c-9.352-3.383-11.359-10.945-11.742-15.02c4.623,1.367,7.926,3.617,9.84,6.713C227.074,168.382,227.275,171.603,227.139,173.718z"
		/>
	<path fill="#242633" d="M271.167,148.542c-0.289-0.555-0.791-0.968-1.393-1.143c-0.096-0.028-2.408-0.692-5.576-0.692
		c-5.982,0-16.44,2.354-19.271,18.115c-0.191,1.062,0.385,2.113,1.381,2.525c0.234,0.096,2.369,0.938,5.459,0.938
		c5.013,0,14.216-2.33,19.534-17.945C271.505,149.748,271.456,149.098,271.167,148.542z M251.768,163.701
		c-0.705,0-1.342-0.061-1.879-0.145c1.529-6.008,5.288-12.266,14.31-12.266c0.662,0,1.277,0.037,1.822,0.09
		C261.866,161.486,256.058,163.701,251.768,163.701z"/>
	<path fill="#242633" d="M232.18,154.972c1.082,0,2.023-0.76,2.244-1.828c0.059-0.281,1.369-6.93-2.93-13.428
		c-3.545-5.358-9.734-8.956-18.396-10.693c-0.629-0.125-1.283,0.018-1.803,0.396c-0.52,0.379-0.855,0.958-0.928,1.597
		c-0.043,0.395-1.01,9.745,4.951,16.736c3.791,4.443,9.426,6.871,16.754,7.218C232.107,154.97,232.145,154.972,232.18,154.972z
		 M218.832,144.806c-2.98-3.477-3.754-7.889-3.918-10.649c13.471,3.662,15.152,12.141,15.172,16.05
		C225.176,149.606,221.396,147.796,218.832,144.806z"/>
	<path fill="#242633" d="M265.173,173.427c-0.117-0.047-2.924-1.15-6.732-1.15c-10.841,0-16.017,8.461-18.138,13.502
		c-0.119,0.283-0.18,0.584-0.18,0.891c0,1.867,1.66,2.336,3.582,2.879c1.787,0.506,3.602,0.762,5.393,0.762
		c5.519,0,13.011-2.42,17.37-13.941C266.911,175.199,266.335,173.89,265.173,173.427z M249.098,185.726
		c-1.334,0-2.543-0.195-3.502-0.424c2.986-5.604,7.299-8.439,12.845-8.439c1.027,0,1.957,0.104,2.732,0.236
		C258.399,182.826,254.347,185.726,249.098,185.726z"/>
	<path fill="#242633" d="M213.365,176.638c-1.854,0-2.447,1.543-2.895,4.395c-0.576,3.668-0.6,12.627,11.619,16.562
		c0.232,0.076,0.471,0.111,0.703,0.111c0.953,0,1.844-0.602,2.168-1.553c0.047-0.137,4.521-13.816-10.812-19.379
		C213.896,176.685,213.633,176.638,213.365,176.638z M214.949,182.121c5.613,2.941,6.314,7.398,6.115,10.162
		c-2.615-1.229-4.42-2.871-5.379-4.904C214.803,185.505,214.77,183.568,214.949,182.121z"/>
	<path fill="#242633" d="M254.245,197.144c-0.139-0.092-3.464-2.256-7.935-2.256c-3.482,0-8.547,1.328-12.904,7.666
		c-0.496,0.721-0.537,1.662-0.107,2.426c0.586,1.037,4.576,3.402,8.957,3.402c3.428,0,8.406-1.404,12.661-8.098
		C255.587,199.23,255.29,197.833,254.245,197.144z M242.256,203.796c-1.318,0-2.516-0.314-3.463-0.68
		c2.227-2.42,4.744-3.645,7.518-3.645c1.195,0,2.283,0.23,3.164,0.508C247.324,202.515,244.904,203.796,242.256,203.796z"/>
	<path fill="#242633" d="M59.896,116.859c0.312-1.228-0.432-2.475-1.659-2.785c-1.229-0.31-2.474,0.432-2.785,1.66
		c-5.17,20.416-12.833,72.492,27.57,115.027c0.45,0.475,1.057,0.713,1.662,0.713c0.567,0,1.136-0.209,1.579-0.631
		c0.918-0.871,0.955-2.322,0.084-3.24C47.514,186.722,54.913,136.538,59.896,116.859z"/>
	<path fill="#242633" d="M59.295,110.563c0.269,0,0.542-0.048,0.808-0.148c0.309-0.116,7.587-2.93,10.516-10.068
		c2.813-6.854,0.957-16.451,0.876-16.856c-0.149-0.753-0.666-1.383-1.378-1.674c-0.71-0.291-1.521-0.208-2.156,0.223
		c-0.342,0.232-8.404,5.756-11.218,12.614c-2.932,7.144,0.335,14.287,0.476,14.587C57.604,110.069,58.428,110.563,59.295,110.563z
		 M60.984,96.394c1.309-3.189,4.227-6.173,6.494-8.149c0.227,3.001,0.208,7.174-1.102,10.362c-1.306,3.185-3.906,5.262-5.767,6.411
		C60.076,102.901,59.667,99.604,60.984,96.394z"/>
	<path fill="#242633" d="M48.313,123.76c0.202,0.056,0.408,0.083,0.614,0.083c0.399,0,0.794-0.104,1.146-0.307
		c0.533-0.308,0.919-0.816,1.073-1.412c5.025-19.439-11.092-27.513-11.256-27.592c-0.601-0.291-1.3-0.305-1.915-0.04
		c-0.613,0.267-1.08,0.789-1.276,1.428c-2.295,7.46-2.033,13.851,0.781,18.995C41.201,121.716,48.024,123.68,48.313,123.76z
		 M40.313,100.21c3.271,2.502,8.497,8.171,6.941,18.14c-1.756-0.956-4.145-2.698-5.751-5.634
		C39.661,109.349,39.263,105.151,40.313,100.21z"/>
	<path fill="#242633" d="M61.703,125.432c-0.104,0.606,0.04,1.229,0.399,1.729c0.36,0.498,0.905,0.832,1.514,0.925
		c0.076,0.011,0.776,0.114,1.858,0.114c3.743,0,16.124-1.369,18.322-18.979c0.083-0.663-0.129-1.331-0.578-1.825
		c-0.45-0.495-1.102-0.778-1.763-0.75C81.289,106.65,64.805,107.338,61.703,125.432z M78.686,111.715
		c-1.155,4.735-4.144,11.167-11.857,11.842C69.195,115.437,75.097,112.662,78.686,111.715z"/>
	<path fill="#242633" d="M45.728,145.325c0.376,0,0.583-0.016,0.583-0.016c0.611-0.044,1.187-0.33,1.585-0.796
		s0.602-1.071,0.55-1.682c-1.73-20.662-20.185-23.035-20.371-23.057c-0.666-0.074-1.33,0.14-1.821,0.596
		c-0.491,0.454-0.759,1.101-0.733,1.769C26.376,144.675,43.75,145.325,45.728,145.325z M35.135,127.321
		c4.542,2.963,7.36,7.416,8.401,13.259c-4.329-0.624-11.688-3.486-13.191-15.554C31.701,125.475,33.407,126.193,35.135,127.321z"/>
	<path fill="#242633" d="M64.858,178.97c0.185,0,0.372-0.021,0.56-0.068c15.43-3.865,18.3-16.971,17.661-23.359
		c-0.064-0.645-0.398-1.232-0.918-1.615c-0.521-0.385-1.179-0.531-1.814-0.406c-7.421,1.49-12.686,4.699-15.649,9.539
		c-4.096,6.686-2.13,13.932-2.044,14.238C62.936,178.306,63.855,178.97,64.858,178.97z M68.606,165.455
		c1.909-3.119,5.221-5.383,9.865-6.756c-0.382,4.08-2.394,11.645-11.753,15.023C66.579,171.63,66.775,168.443,68.606,165.455z"/>
	<path fill="#242633" d="M42.101,168.285c3.09,0,5.225-0.842,5.459-0.938c0.997-0.412,1.573-1.463,1.382-2.525
		c-2.829-15.761-13.288-18.115-19.271-18.115c-3.167,0-5.48,0.664-5.577,0.692c-0.601,0.175-1.104,0.588-1.392,1.143
		c-0.289,0.556-0.338,1.206-0.136,1.797C27.886,165.955,37.089,168.285,42.101,168.285z M29.672,151.291
		c9.021,0,12.78,6.258,14.31,12.266c-0.539,0.084-1.175,0.145-1.881,0.145c-4.29,0-10.098-2.215-14.251-12.32
		C28.395,151.328,29.01,151.291,29.672,151.291z"/>
	<path fill="#242633" d="M78.55,147.752c5.962-6.991,4.995-16.341,4.952-16.736c-0.072-0.639-0.407-1.218-0.927-1.597
		c-0.519-0.378-1.172-0.522-1.803-0.396c-8.663,1.737-14.853,5.334-18.397,10.693c-4.299,6.498-2.987,13.147-2.931,13.428
		c0.222,1.068,1.163,1.828,2.244,1.828c0.036,0,0.073-0.002,0.109-0.002C69.125,154.623,74.761,152.195,78.55,147.752z
		 M63.789,150.205c0.013-1.917,0.421-4.951,2.41-7.958c2.485-3.757,6.77-6.472,12.758-8.091c-0.166,2.762-0.938,7.173-3.919,10.651
		C72.475,147.794,68.696,149.605,63.789,150.205z"/>
	<path fill="#242633" d="M50.165,189.548c1.922-0.543,3.582-1.012,3.582-2.879c0-0.307-0.061-0.607-0.179-0.891
		c-2.121-5.041-7.296-13.502-18.139-13.502c-3.807,0-6.614,1.104-6.732,1.15c-1.161,0.463-1.736,1.771-1.294,2.941
		c4.359,11.521,11.853,13.941,17.371,13.941C46.563,190.31,48.377,190.054,50.165,189.548z M32.697,177.099
		c0.773-0.135,1.704-0.236,2.731-0.236c5.548,0,9.86,2.836,12.846,8.439c-0.958,0.229-2.167,0.424-3.501,0.424
		C39.524,185.726,35.47,182.826,32.697,177.099z"/>
	<path fill="#242633" d="M71.077,197.707c0.233,0,0.47-0.035,0.704-0.111c12.217-3.936,12.194-12.895,11.618-16.564
		c-0.447-2.85-1.041-4.393-2.896-4.393l0,0c-0.267,0-0.531,0.047-0.781,0.137c-15.335,5.562-10.86,19.242-10.814,19.379
		C69.233,197.105,70.123,197.707,71.077,197.707z M78.919,182.121c0.18,1.449,0.146,3.385-0.737,5.26
		c-0.956,2.029-2.759,3.672-5.369,4.9C72.63,189.541,73.33,185.062,78.919,182.121z"/>
	<path fill="#242633" d="M47.56,194.888c-4.471,0-7.796,2.164-7.936,2.256c-1.043,0.689-1.341,2.086-0.67,3.141
		c4.254,6.693,9.233,8.098,12.66,8.098c4.352,0,8.351-2.352,8.946-3.385c0.441-0.766,0.404-1.715-0.097-2.443
		C56.105,196.216,51.041,194.888,47.56,194.888z M51.614,203.796c-2.648,0-5.069-1.281-7.22-3.818
		c0.879-0.277,1.966-0.506,3.166-0.506c2.772,0,5.292,1.225,7.517,3.645C54.13,203.482,52.932,203.796,51.614,203.796z"/>
</g>
</svg>
