<?xml version="1.0" encoding="utf-8"?>
<!-- Generator: Adobe Illustrator 16.0.0, SVG Export Plug-In . SVG Version: 6.00 Build 0)  -->
<!DOCTYPE svg PUBLIC "-//W3C//DTD SVG 1.1//EN" "http://www.w3.org/Graphics/SVG/1.1/DTD/svg11.dtd">
<svg version="1.1" id="Layer_1" xmlns="http://www.w3.org/2000/svg" xmlns:xlink="http://www.w3.org/1999/xlink" x="0px" y="0px"
	 width="296.377px" height="295.652px" viewBox="0 0 296.377 295.652" enable-background="new 0 0 296.377 295.652"
	 xml:space="preserve">
<g>
	<g>
		<path fill="#FCCB5F" d="M149.871,290.558c-78.024,0-141.502-63.477-141.502-141.5s63.478-141.5,141.502-141.5
			c78.022,0,141.498,63.477,141.498,141.5S227.894,290.558,149.871,290.558z M149.871,10.558c-76.37,0-138.502,62.131-138.502,138.5
			s62.132,138.5,138.502,138.5c76.368,0,138.498-62.131,138.498-138.5S226.239,10.558,149.871,10.558z"/>
	</g>
</g>
<g>
	<g>
		<path fill="#3CAEE0" d="M149.871,290.558c-78.024,0-141.502-63.477-141.502-141.5c0-78.023,63.478-141.5,141.502-141.5
			c78.022,0,141.498,63.477,141.498,141.5C291.369,227.082,227.894,290.558,149.871,290.558z M149.871,10.559
			c-76.37,0-138.502,62.131-138.502,138.5c0,76.369,62.132,138.5,138.502,138.5c76.368,0,138.498-62.131,138.498-138.5
			C288.369,72.689,226.239,10.559,149.871,10.559z"/>
	</g>
</g>
<g>
	<path fill="#242633" d="M232.152,85.956c-0.595-0.919-1.615-1.475-2.711-1.475h-10.187c0.346-4.048,0.528-8.125,0.528-12.222
		V58.739c0-1.783-1.445-3.229-3.229-3.229H83.187c-1.784,0-3.229,1.446-3.229,3.229V72.26c0,4.097,0.182,8.173,0.528,12.222H70.297
		c-1.095,0-2.116,0.555-2.711,1.475c-4.453,6.881-6.806,14.841-6.806,23.02c0,23.367,19.013,42.376,42.384,42.376
		c0.126,0,0.251-0.008,0.377-0.01c9.112,13.972,20.66,26.423,34.279,36.639c-6.686,17.351-14.255,40.837-14.469,41.502
		c-0.001,0.002-0.001,0.002-0.002,0.003l-3.574,10.832h-12.94c-1.784,0-3.229,1.445-3.229,3.229v13.047
		c0,1.782,1.445,3.229,3.229,3.229h86.07c1.784,0,3.229-1.447,3.229-3.229v-13.047c0-1.783-1.445-3.229-3.229-3.229h-12.94
		l-3.573-10.832c0-0.001,0-0.001,0-0.001c-0.21-0.647-7.736-24.021-14.477-41.505c13.619-10.217,25.167-22.668,34.28-36.638
		c0.127,0.002,0.25,0.01,0.377,0.01c23.371,0,42.386-19.009,42.386-42.376C238.958,100.797,236.604,92.837,232.152,85.956z
		 M67.238,108.976c0-6.355,1.676-12.554,4.864-18.037h9.09c2.498,19.048,8.762,37.322,18.274,53.765
		C81.387,142.849,67.238,127.534,67.238,108.976z M157.708,246.776h19.907c0.005,0,0.009,0,0.014,0s0.009,0,0.013,0h12.035v6.588
		h-79.613v-6.588h32.272c1.784,0,3.229-1.446,3.229-3.229s-1.445-3.229-3.229-3.229h-15.76l2.176-6.591h42.236l2.176,6.591h-15.456
		c-1.783,0-3.229,1.445-3.229,3.229S155.925,246.776,157.708,246.776z M156.115,184.232c-1.194,0.863-1.652,2.428-1.112,3.799
		c5.247,13.321,11.232,31.208,13.873,39.238h-38.01c2.65-8.058,8.663-26.02,13.866-39.238c0.539-1.372,0.082-2.936-1.112-3.799
		C107.8,158.324,86.416,116.465,86.416,72.26V61.968h126.908V72.26C213.324,116.461,191.938,158.319,156.115,184.232z
		 M200.271,144.705c9.513-16.443,15.777-34.717,18.277-53.765h9.088c3.188,5.483,4.864,11.682,4.864,18.037
		C232.5,127.533,218.35,142.848,200.271,144.705z"/>
</g>
</svg>
