<?xml version="1.0" encoding="utf-8"?>
<!-- Generator: Adobe Illustrator 16.0.0, SVG Export Plug-In . SVG Version: 6.00 Build 0)  -->
<!DOCTYPE svg PUBLIC "-//W3C//DTD SVG 1.1//EN" "http://www.w3.org/Graphics/SVG/1.1/DTD/svg11.dtd">
<svg version="1.1" id="Layer_1" xmlns="http://www.w3.org/2000/svg" xmlns:xlink="http://www.w3.org/1999/xlink" x="0px" y="0px"
	 width="404.512px" height="163.158px" viewBox="0 0 404.512 163.158" enable-background="new 0 0 404.512 163.158"
	 xml:space="preserve">
<circle fill="#FB8098" cx="74.308" cy="83.261" r="71.007"/>
<path d="M121.418,90.089V63.572c0-0.006-0.001-0.012-0.001-0.018c0-0.064-0.004-0.13-0.007-0.195
	c0.088-2.26-1.245-4.427-3.474-5.287L91.006,47.679c-1.676-6.076-6.357-10.917-12.341-12.812c0.664-7.576,3.344-15.502,7.722-22.682
	c1.564-2.565,0.753-5.912-1.812-7.477c-2.565-1.563-5.912-0.753-7.477,1.812c-5.399,8.854-8.654,18.753-9.341,28.254
	c-7.692,2.289-13.32,9.422-13.32,17.848c0,2.104,0.356,4.124,1.001,6.012L30.329,95.976c-0.011,0.017-0.02,0.035-0.031,0.053
	c-0.059,0.089-0.111,0.181-0.164,0.272c-0.039,0.067-0.08,0.135-0.116,0.203c-0.04,0.076-0.074,0.154-0.109,0.232
	c-0.041,0.087-0.083,0.174-0.118,0.263c-0.024,0.06-0.043,0.121-0.064,0.182c-0.038,0.106-0.077,0.213-0.109,0.321
	c-0.015,0.053-0.026,0.107-0.04,0.161c-0.029,0.115-0.06,0.23-0.081,0.347c-0.013,0.069-0.02,0.139-0.03,0.209
	c-0.015,0.101-0.032,0.201-0.041,0.303c-0.009,0.1-0.01,0.2-0.014,0.301c-0.002,0.072-0.008,0.144-0.008,0.216
	c0,0.116,0.009,0.233,0.018,0.352c0.004,0.057,0.004,0.113,0.01,0.169c0.011,0.111,0.031,0.222,0.049,0.333
	c0.011,0.064,0.019,0.13,0.031,0.193c0.019,0.093,0.044,0.185,0.068,0.276c0.021,0.084,0.042,0.168,0.067,0.252
	c0.023,0.072,0.05,0.145,0.077,0.217c0.036,0.102,0.072,0.202,0.113,0.302c0.008,0.019,0.014,0.038,0.021,0.057
	c0.036,0.081,0.076,0.158,0.114,0.236c0.021,0.043,0.04,0.087,0.062,0.13c0.072,0.136,0.15,0.268,0.232,0.396
	c0.027,0.043,0.057,0.083,0.085,0.125c0.064,0.095,0.131,0.188,0.201,0.277c0.031,0.04,0.062,0.08,0.095,0.119
	c0.089,0.108,0.182,0.213,0.279,0.313c0.014,0.015,0.027,0.03,0.042,0.045c0.118,0.119,0.242,0.231,0.369,0.339
	c0.024,0.021,0.048,0.039,0.073,0.059c0.113,0.092,0.229,0.179,0.348,0.261c0.017,0.012,0.032,0.025,0.049,0.037
	c0.012,0.008,0.024,0.015,0.037,0.021c0.07,0.047,0.143,0.092,0.216,0.135c0.046,0.027,0.092,0.056,0.139,0.082
	c0.058,0.032,0.117,0.062,0.176,0.092c0.063,0.032,0.126,0.065,0.19,0.095c0.036,0.017,0.073,0.031,0.11,0.047
	c0.087,0.038,0.174,0.076,0.262,0.109c0.006,0.002,0.011,0.003,0.017,0.005c0.486,0.181,0.989,0.289,1.493,0.326
	c0.132,0.01,0.265,0.015,0.398,0.015c0.018,0,0.036-0.003,0.053-0.003c0.136-0.002,0.272-0.009,0.407-0.021
	c0.047-0.004,0.094-0.008,0.142-0.013c0.146-0.017,0.29-0.039,0.434-0.066c0.044-0.009,0.087-0.019,0.131-0.028
	c0.154-0.034,0.307-0.073,0.458-0.12c0.017-0.005,0.033-0.012,0.05-0.017c0.165-0.054,0.327-0.114,0.486-0.183
	c0.005-0.003,0.011-0.004,0.016-0.006l0.021-0.01c0.012-0.005,0.024-0.01,0.037-0.016l73.46-32.087V86.61l-77.872,34.015
	c-2.753,1.202-4.01,4.409-2.808,7.162c0.893,2.044,2.891,3.264,4.988,3.264c0.727,0,1.466-0.146,2.174-0.456l73.518-32.112v14.02
	l-77.872,34.015c-2.753,1.202-4.01,4.409-2.808,7.162c0.893,2.044,2.891,3.264,4.988,3.264c0.727,0,1.466-0.146,2.174-0.456
	l81.06-35.406c0.014-0.006,0.026-0.012,0.04-0.018l0.036-0.015c0.033-0.015,0.063-0.033,0.096-0.049
	c0.125-0.058,0.248-0.116,0.367-0.183c0.066-0.037,0.128-0.078,0.192-0.117c0.085-0.052,0.17-0.102,0.251-0.158
	c0.082-0.057,0.159-0.117,0.237-0.177c0.059-0.046,0.119-0.09,0.176-0.138c0.083-0.07,0.162-0.145,0.24-0.219
	c0.048-0.046,0.098-0.09,0.144-0.138c0.075-0.076,0.145-0.155,0.214-0.235c0.046-0.054,0.094-0.105,0.138-0.161
	c0.061-0.075,0.117-0.153,0.173-0.231c0.048-0.066,0.097-0.133,0.143-0.202s0.086-0.141,0.128-0.212
	c0.049-0.082,0.098-0.165,0.143-0.251c0.033-0.062,0.062-0.127,0.092-0.19c0.045-0.097,0.09-0.192,0.13-0.291
	c0.024-0.062,0.046-0.125,0.068-0.187c0.037-0.103,0.073-0.204,0.104-0.309c0.021-0.071,0.038-0.144,0.056-0.216
	c0.024-0.096,0.049-0.191,0.067-0.289c0.019-0.096,0.031-0.194,0.045-0.292c0.01-0.074,0.023-0.148,0.03-0.224
	c0.013-0.135,0.018-0.271,0.021-0.407c0.001-0.037,0.006-0.073,0.006-0.11v-0.04c0-0.014,0-0.027,0-0.042v-25.85
	C121.418,90.117,121.418,90.104,121.418,90.089z M73.057,71.244c7.974,0,14.792-5.04,17.44-12.101l11.695,4.514L49.776,86.553
	l12.579-18.707C65.385,69.983,69.075,71.244,73.057,71.244z"/>
<g>
	<path d="M165.296,68.709v-5.872h1.32c2.954,0,2.954-0.989,2.954-3.101V31.76c0-1.848,0-2.97-2.765-2.97h-1.508v-5.872h33.243v13.46
		h-7.227v-3.629c0-1.848-0.188-2.771-2.702-2.771h-9.426v29.759c0,2.177,0,3.101,2.891,3.101h1.886v5.872H165.296z"/>
	<path d="M201.996,39.281c3.896-2.573,8.421-3.827,12.945-3.827c11.06,0,12.38,6.4,12.38,11.481V58.68
		c0,2.64,0.377,3.893,1.885,3.893c0.88,0,1.696-0.396,2.199-0.594v5.675c-3.582,1.782-6.724,1.979-7.541,1.979
		c-1.696,0-4.084-0.462-5.152-3.826c-1.445,1.253-4.273,3.826-9.238,3.826c-5.09,0-9.992-2.178-9.992-9.237
		c0-6.796,5.531-9.237,8.169-10.029c2.074-0.659,5.593-1.716,6.158-1.848l4.399-1.056c0-2.639-0.188-6.334-4.776-6.334
		c-4.336,0-4.336,2.507-4.336,5.081v0.857h-7.101V39.281z M218.209,52.544c-5.97,1.716-9.74,2.969-9.74,6.993
		c0,2.311,1.508,4.289,4.085,4.289c0.941,0,1.947-0.33,2.765-0.857c1.194-0.726,2.891-2.045,2.891-6.796V52.544z"/>
	<path d="M261.694,49.311h-7.038v-3.035c0-1.649,0-4.685-3.959-4.685c-5.655,0-6.786,6.73-6.786,9.699
		c0,5.807,2.387,10.558,8.169,10.558c3.33,0,6.535-1.32,9.362-3.233v7.456c-3.581,2.507-7.352,3.761-11.688,3.761
		c-12.443,0-14.768-11.019-14.768-16.363c0-12.999,7.98-18.211,16.024-18.211c0.754,0,5.53,0,10.683,2.837V49.311z"/>
	<path d="M286.014,42.515v16.627c0,3.695,0.314,4.157,2.388,4.157h1.194v5.41H273.76v-5.41h1.194c2.074,0,2.388-0.527,2.388-4.157
		V42.515h-2.64c-1.57,0-2.45,0.198-2.45,2.243v2.64h-6.159v-11.02h31.17v11.02h-6.222v-2.64c0-1.716-0.565-2.243-2.45-2.243H286.014
		z"/>
	<path d="M313.035,74.119c0,2.706,0.44,3.035,2.891,3.035h1.319v5.411h-17.092v-5.411h0.879c2.199,0,2.766-0.132,2.766-3.299V47.463
		c0-3.629-0.063-4.354-0.754-4.685c-0.629-0.33-1.194-0.33-3.08-0.198v-5.278l12.506-0.924c0.439,2.046,0.502,3.102,0.502,4.487
		h0.127c1.193-1.979,3.393-5.411,9.049-5.411c8.609,0,12.128,8.116,12.128,16.166c0,6.796-3.017,18.013-13.26,18.013
		c-3.896,0-6.095-1.781-7.98-3.562V74.119z M312.595,53.533c0,5.675,2.137,9.238,6.033,9.238c5.781,0,5.781-8.381,5.781-9.898
		c0-1.583,0-9.633-5.719-9.633c-4.838,0-6.096,5.74-6.096,9.436V53.533z"/>
	<path d="M354.698,69.699c-13.196,0-15.27-11.283-15.27-16.562c0-7.324,3.142-18.013,15.961-18.013
		c10.935,0,15.647,7.455,15.647,16.297C371.037,60.461,366.89,69.699,354.698,69.699z M355.264,41.723
		c-6.032,0-6.535,8.182-6.535,11.02c0,1.121,0.062,10.293,6.599,10.293c5.529,0,6.347-6.797,6.347-11.085
		C361.674,50.168,361.674,41.723,355.264,41.723z"/>
	<path d="M184.777,93.633l7.352,25.864c0.126,0.33,0.628,2.178,0.628,2.508h0.125c0.817-3.035,5.907-20.917,8.232-28.372h19.292
		v5.872h-1.006c-3.204,0-3.204,0.528-3.204,3.629v26.986c0,2.771,0,3.431,3.017,3.431h1.193v5.873h-17.658v-5.873h1.131
		c2.954,0,2.954-0.726,2.954-3.431V99.505h-0.126l-10.809,37.214h-7.541l-10.432-37.214h-0.125v30.879
		c0,3.102,0.628,3.167,3.079,3.167h1.005v5.873h-16.59v-5.873h1.131c3.142,0,3.142-0.726,3.142-3.431v-27.382
		c0-2.508-0.251-3.233-3.142-3.233h-1.131v-5.872H184.777z"/>
	<path d="M228.012,109.996c3.896-2.573,8.421-3.827,12.945-3.827c11.06,0,12.38,6.4,12.38,11.48v11.745
		c0,2.64,0.377,3.893,1.885,3.893c0.88,0,1.696-0.396,2.199-0.594v5.675c-3.582,1.781-6.724,1.979-7.541,1.979
		c-1.696,0-4.084-0.462-5.152-3.827c-1.445,1.253-4.273,3.827-9.238,3.827c-5.09,0-9.991-2.178-9.991-9.237
		c0-6.797,5.53-9.238,8.169-10.029c2.074-0.66,5.593-1.716,6.158-1.848l4.399-1.056c0-2.64-0.188-6.335-4.776-6.335
		c-4.336,0-4.336,2.508-4.336,5.081v0.857h-7.101V109.996z M244.225,123.258c-5.97,1.716-9.74,2.97-9.74,6.994
		c0,2.31,1.508,4.289,4.084,4.289c0.942,0,1.948-0.33,2.766-0.857c1.194-0.727,2.891-2.046,2.891-6.797V123.258z"/>
	<path d="M272.439,144.834c0,2.705,0.44,3.035,2.892,3.035h1.318v5.41h-17.092v-5.41h0.879c2.2,0,2.766-0.132,2.766-3.299v-26.393
		c0-3.629-0.062-4.355-0.754-4.685c-0.629-0.33-1.194-0.33-3.08-0.198v-5.278l12.506-0.924c0.439,2.045,0.503,3.101,0.503,4.486
		h0.126c1.193-1.979,3.393-5.41,9.049-5.41c8.609,0,12.128,8.115,12.128,16.165c0,6.797-3.017,18.014-13.259,18.014
		c-3.896,0-6.096-1.781-7.981-3.563V144.834z M272,124.248c0,5.674,2.137,9.237,6.032,9.237c5.781,0,5.781-8.38,5.781-9.897
		c0-1.583,0-9.633-5.718-9.633c-4.839,0-6.096,5.74-6.096,9.435V124.248z"/>
	<path d="M301.66,116.66c0-3.959-0.503-4.157-2.639-4.157h-1.006v-5.41h15.521v5.41h-0.565c-2.137,0-2.639,0.198-2.639,4.157v3.365
		h0.628c1.445,0,3.017-0.99,4.587-3.168l3.708-5.212c2.451-3.432,4.901-5.081,9.175-5.081c1.445,0,2.388,0.198,3.456,0.528v5.41
		c-0.313-0.132-0.942-0.264-1.319-0.264c-1.697,0-2.891,0.989-4.147,2.705l-2.765,3.827c-1.697,2.31-3.771,3.167-5.594,3.365v0.462
		c2.891,0.527,4.525,1.386,5.908,3.299l3.832,5.345c1.445,2.045,2.64,2.771,4.776,2.771h0.503v5.41
		c-1.383,0.264-2.451,0.527-4.65,0.527c-3.33,0-6.158-1.254-8.106-3.959l-5.027-7.06c-2.011-2.837-2.576-3.497-4.399-3.497h-0.564
		v4.421c0,4.024,0.564,4.157,2.639,4.157h0.565v5.41h-15.458v-5.41h0.628c2.325,0,2.953-0.198,2.953-4.157V116.66z"/>
	<path d="M344.394,124.644c0.125,3.629,2.262,8.182,8.105,8.182c4.399,0,7.918-2.177,10.432-3.761v7.786
		c-2.388,1.386-6.535,3.694-13.008,3.694c-12.506,0-15.02-10.688-15.02-16.693c0-8.775,4.588-17.881,15.271-17.881
		c13.636,0,13.51,14.12,13.51,18.673H344.394z M355.076,118.837c-0.126-6.928-4.462-6.994-5.027-6.994
		c-3.143,0-5.342,3.102-5.593,6.994H355.076z"/>
	<path d="M387.501,113.229v16.628c0,3.694,0.314,4.157,2.389,4.157h1.193v5.41h-15.836v-5.41h1.194c2.074,0,2.388-0.528,2.388-4.157
		v-16.628h-2.639c-1.571,0-2.451,0.198-2.451,2.244v2.639h-6.158v-11.019h31.169v11.019h-6.221v-2.639
		c0-1.716-0.565-2.244-2.451-2.244H387.501z"/>
</g>
<circle fill="#FFFFFF" cx="73.057" cy="52.623" r="8.071"/>
</svg>
